<svg xmlns="http://www.w3.org/2000/svg" xmlns:svg="http://www.w3.org/2000/svg" id="Layer_1" width="65.302" height="47.402" x="0" y="0" enable-background="new 0 0 100 52.629" version="1.1" viewBox="0 0 65.302 47.402" xml:space="preserve"><metadata id="metadata9"/><path style="font-size:40px;font-style:normal;font-weight:700;line-height:125%;letter-spacing:0;word-spacing:0;fill:#fff;fill-opacity:1;stroke:none;font-family:Sans;-inkscape-font-specification:Sans Bold" id="path2987" d="M 9.038533,42.626194 15.143407,40.013071 7.726748,22.686001 2.013642,26.661092 0,21.956748 l 5.677195,-3.959719 6.571718,-2.812951 9.4303,22.031414 6.104874,-2.613123 2.044385,4.776165 -18.745555,8.023826 -2.044384,-4.776166"/><path style="font-size:40px;font-style:normal;font-weight:700;line-height:125%;letter-spacing:0;word-spacing:0;fill:#fff;fill-opacity:1;stroke:none;font-family:Sans;-inkscape-font-specification:Sans Bold" id="path2989" d="m 29.963191,12.041941 3.426949,8.006165 7.975607,-3.41387 1.543436,3.60583 -7.975607,3.41387 3.426949,8.006164 -3.636388,1.556515 -3.426949,-8.006164 -7.975606,3.413869 -1.543436,-3.60583 7.975607,-3.413869 -3.426949,-8.006165 3.636387,-1.556515"/><path style="font-size:40px;font-style:normal;font-weight:700;line-height:125%;letter-spacing:0;word-spacing:0;fill:#fff;fill-opacity:1;stroke:none;font-family:Sans;-inkscape-font-specification:Sans Bold" id="path2991" d="M 44.512136,27.442114 50.61701,24.828991 43.200351,7.5019212 37.487245,11.477012 35.473603,6.7726682 41.150798,2.8129492 47.722516,-8.0871583e-7 57.152817,22.031412 63.257691,19.418289 65.302075,24.194455 46.55652,32.21828 44.512136,27.442114"/></svg>