<svg xmlns="http://www.w3.org/2000/svg" xmlns:svg="http://www.w3.org/2000/svg" id="Layer_1" width="100" height="100" x="0" y="0" enable-background="new 0 0 283.46 283.46" version="1.1" viewBox="0 0 283.46 283.46" xml:space="preserve"><metadata id="metadata23"/><switch id="switch3" style="fill:#fff;fill-opacity:1"><g id="g7" style="fill:#fff;fill-opacity:1"><g id="g9" style="fill:#fff;fill-opacity:1"><polygon id="polygon11" fill="#000" points="105.088 29.241 28.018 106.283 45.645 122.806 122.247 46.214" style="fill:#fff;fill-opacity:1"/><path id="path13" fill="#000" d="M81.426,7.522C71.348-2.556,54.893-2.527,44.678,7.708L7.754,44.622 C-2.413,54.837-2.51,71.283,7.568,81.38l11.318,11.484l73.848-73.877L81.426,7.522z" style="fill:#fff;fill-opacity:1"/><g id="g15" style="fill:#fff;fill-opacity:1"><path id="path17" fill="#000" d="M260.422,184.946L138.751,62.591l0,0l-30.85-30.596l-76.856,76.856l153.83,151.642l98.516,22.97 L260.422,184.946z M108.086,65.032l113.039,113.752l-19.277,19.492l2.441-2.51L89.922,83.177L108.086,65.032z M64.395,108.666 l21.318-21.338l-4.014,4.16l114.337,112.599l-17.363,17.52L64.395,108.666z M196.564,239.097l-13.672-13.379l42.363-42.754 l13.828,13.809l12.871,55.254L196.564,239.097z" style="fill:#fff;fill-opacity:1"/></g></g></g></switch></svg>