<svg xmlns="http://www.w3.org/2000/svg" xmlns:svg="http://www.w3.org/2000/svg" id="Layer_1" width="93.924" height="100" x="0" y="0" enable-background="new 0 0 93.924 100" version="1.0" viewBox="0 0 93.924 100" xml:space="preserve"><metadata id="metadata2859"/><polygon id="polygon2839" points="46.178 7.197 42.985 .364 36.152 3.528 39.316 10.389" transform="matrix(-1,0,0,1,93.924,0)" style="fill:#fff"/><polygon id="polygon2841" points="24.979 12.377 21.143 23.691 32.484 27.499 36.293 16.186" transform="matrix(-1,0,0,1,93.924,0)" style="fill:#fff"/><polygon id="polygon2843" points="57.07 18.986 58.807 38.701 43.909 40.465 37.861 32.428 36.377 20.918" transform="matrix(-1,0,0,1,93.924,0)" style="fill:#fff"/><polygon id="polygon2845" points="69.112 58.275 73.285 57.519 78.213 49.37 78.213 49.174 71.017 44.805 66.844 45.562 61.916 53.711 61.916 53.906" transform="matrix(-1,0,0,1,93.924,0)" style="fill:#fff"/><polygon id="polygon2847" points="78.326 65.863 76.617 79.529 67.152 78.186 63.624 71.353 64.968 64.072" transform="matrix(-1,0,0,1,93.924,0)" style="fill:#fff"/><path id="path2849" d="M 42.314,65.275 78.466,21.59 86.307,2.324 93.924,0 93.896,95.071 c 0,2.632 -2.128,4.761 -4.761,4.761 L 24.139,99.775 29.46,80.817 42.314,65.275" style="fill:#fff"/><polygon id="polygon2851" points="49.426 47.718 44.974 41.809 41.949 44.077 41.949 50.07 46.289 50.07" transform="matrix(-1,0,0,1,93.924,0)" style="fill:#fff"/><polygon id="polygon2853" points="82.134 100 82.134 91.627 86.951 86.782 93.924 92.104 93.924 100" transform="matrix(-1,0,0,1,93.924,0)" style="fill:#fff"/></svg>