<svg xmlns="http://www.w3.org/2000/svg" xmlns:svg="http://www.w3.org/2000/svg" id="svg2" width="21.992" height="36.27" version="1.1"><metadata id="metadata7"/><g id="layer1" transform="translate(62.85306,-639.11632)"><g style="font-size:40px;font-style:normal;font-weight:700;fill:#fff;fill-opacity:1;stroke:none;font-family:Bitstream Vera Sans;-inkscape-font-specification:Bitstream Charter Bold" id="text3088" transform="translate(-341.3208,508.97144)"><path id="path3093" d="m 290.87006,166.41441 -3.16407,0 -0.0195,-5.8789 c -1.62761,-0.0651 -3.20313,-0.2474 -4.72656,-0.54688 -1.52344,-0.29948 -3.00782,-0.71614 -4.45313,-1.25 l 0,-5.11719 c 1.4974,0.76824 3.00781,1.36069 4.53125,1.77735 1.53645,0.40365 3.09244,0.63151 4.66797,0.68359 l 0,-6.07422 -0.64453,-0.11718 c -3.11199,-0.54687 -5.32552,-1.40624 -6.64062,-2.57813 -1.30209,-1.17186 -1.95313,-2.85806 -1.95313,-5.05859 0,-2.33071 0.79427,-4.14712 2.38281,-5.44922 1.60156,-1.31508 3.8802,-2.03123 6.83594,-2.14844 l 0.0195,-4.51172 3.16407,0 0,4.4336 c 1.30206,0.10419 2.60414,0.26695 3.90625,0.48828 1.30206,0.22138 2.61065,0.50783 3.92578,0.85937 l 0,4.96094 c -1.30211,-0.54686 -2.60419,-0.97003 -3.90625,-1.26953 -1.3021,-0.31248 -2.6107,-0.50128 -3.92578,-0.56641 l 0,5.60547 0.625,0.11719 c 3.30727,0.52085 5.62497,1.39324 6.95312,2.61719 1.34112,1.21095 2.01169,3.00782 2.01172,5.39062 -3e-5,2.39584 -0.7943,4.23829 -2.38281,5.52734 -1.58857,1.27605 -3.99091,2.00521 -7.20703,2.1875 l 0,5.91797 m -3.16407,-22.20703 0,-5.09765 c -0.92449,0.0521 -1.66667,0.30601 -2.22656,0.76171 -0.54688,0.44273 -0.82032,1.00914 -0.82031,1.69922 -10e-6,0.76825 0.2539,1.37372 0.76172,1.81641 0.5078,0.4297 1.26952,0.70314 2.28515,0.82031 m 3.16407,6.36719 0,5.42969 c 1.13279,-0.013 1.97915,-0.23437 2.53906,-0.66407 0.5729,-0.42968 0.85935,-1.07421 0.85937,-1.93359 -2e-5,-0.88541 -0.26043,-1.54296 -0.78125,-1.97266 -0.52085,-0.44269 -1.39324,-0.72915 -2.61718,-0.85937" style="fill:#fff"/></g></g></svg>