<svg xmlns="http://www.w3.org/2000/svg" xmlns:svg="http://www.w3.org/2000/svg" xmlns:xlink="http://www.w3.org/1999/xlink" id="svg1" width="719.267" height="650.475" version="1.1"><metadata id="metadata3117"/><defs id="defs3"><linearGradient id="linearGradient1085"><stop style="stop-color:#7f0000;stop-opacity:1" id="stop1086" offset="0"/><stop style="stop-color:red;stop-opacity:1" id="stop1087" offset="1"/></linearGradient><radialGradient id="radialGradient1088" cx="1.8" cy="-.034" r="2.137" fx="1.8" fy="-.034" xlink:href="#linearGradient1085"/><radialGradient id="radialGradient1089" cx="-1.854" cy="-.028" r="2.137" fx="-1.854" fy="-.028" xlink:href="#linearGradient1085"/><radialGradient id="radialGradient1090" cx="-.341" cy="-1.884" r="2.137" fx="-.341" fy="-1.884" gradientTransform="scale(0.751916,1.32993)" xlink:href="#linearGradient1085"/><radialGradient id="radialGradient1091" cx="-.339" cy=".863" r="2.137" fx="-.339" fy=".863" gradientTransform="scale(0.751916,1.32993)" xlink:href="#linearGradient1085"/><radialGradient id="radialGradient1092" cx=".861" cy="-.023" r="2.137" fx=".861" fy="-.023" xlink:href="#linearGradient1085"/><radialGradient id="radialGradient1093" cx="-2.793" cy="-.032" r="2.137" fx="-2.793" fy="-.032" xlink:href="#linearGradient1085"/><radialGradient id="radialGradient1094" cx="-.341" cy="-1.175" r="2.137" fx="-.341" fy="-1.175" gradientTransform="scale(0.751916,1.32993)" xlink:href="#linearGradient1085"/><radialGradient id="radialGradient1095" cx="-.336" cy="1.569" r="2.137" fx="-.336" fy="1.569" gradientTransform="scale(0.751916,1.32993)" xlink:href="#linearGradient1085"/><radialGradient id="radialGradient1096" cx="200.684" cy="118.162" r="216.888" fx="200.684" fy="118.162" gradientTransform="scale(0.89519467,1.1170755)" gradientUnits="userSpaceOnUse" xlink:href="#linearGradient1085"/></defs><path id="path1248" d="m 126.46467,264.30285 c -14.85205,3.27915 -30.709774,11.35094 -37.698638,23.71571 -7.953883,30.10477 21.324458,11.53197 28.546218,30.05093 7.22177,18.51897 -14.90196,23.65334 -14.90196,23.65334 l 0,0 -96.1618669,17.54871 c 0,0 17.5258129,95.34014 17.5258109,95.34013 0,0 5.134379,22.12371 23.653339,14.90196 15.046656,-5.86769 5.600244,-26.3109 17.679263,-29.49688 2.787465,-0.73523 6.727023,-0.5407 12.371668,0.95066 12.364775,6.98886 20.436557,22.84659 23.715706,37.69863 1.21052,5.48271 1.67598,10.7619 1.55297,15.47258 0.0123,0.20582 0.009,0.42543 0.02,0.63167 0.68799,13.20544 -1.90925,27.20251 -9.58858,36.40665 C 67.823852,549.25172 74.857793,515.30034 54.981683,515.08536 40.50008,514.92871 38.19568,526.76702 37.996597,533.24212 l 18.474391,101.23435 c 0,0 96.359792,-18.37899 96.359782,-18.37898 0,0 22.12371,-5.13439 14.90196,-23.65334 -7.22176,-18.51896 -36.46936,0.0482 -28.51548,-30.05654 6.98887,-12.36477 22.81585,-20.43096 37.6679,-23.7101 5.4827,-1.21051 10.76192,-1.67598 15.47258,-1.55296 0.20581,-0.0123 0.42543,-0.009 0.63166,-0.02 13.20545,-0.68799 27.23327,1.90363 36.43739,9.58297 18.07478,25.35477 -15.87658,18.32082 -16.09157,38.19694 -0.215,19.8761 22.2962,16.86499 22.2962,16.865 l 95.61411,-17.41703 c 0,0 -18.25333,-96.54156 -18.25331,-96.54155 0,0 -5.1344,-22.12373 -23.65334,-14.90196 -18.51897,7.22177 0.0538,36.5001 -30.05093,28.54622 -12.36478,-6.98886 -20.43657,-22.84659 -23.71571,-37.69863 -1.21052,-5.48271 -1.67599,-10.76192 -1.55297,-15.47258 -0.0123,-0.20582 -0.009,-0.42545 -0.02,-0.63167 -0.68799,-13.20544 1.90924,-27.20253 9.58858,-36.40664 4.75402,-3.38903 8.37093,-4.96254 11.23841,-5.25929 12.42576,-1.28594 10.80358,21.14544 26.95293,21.32012 18.54521,0.2006 17.17822,-18.72794 16.91033,-21.3515 L 281.02299,309.1275 180.52645,327.46724 c -6.56754,-0.30779 -17.76429,-2.8489 -17.61168,-16.95739 0.21499,-19.87611 34.13561,-12.83656 16.06083,-38.19133 -9.20413,-7.67933 -23.2012,-10.27657 -36.40664,-9.58858 -0.20625,0.0107 -0.42586,0.008 -0.63168,0.02 -4.71066,-0.12301 -9.98987,0.34245 -15.47258,1.55297 z" style="fill:#fff;stroke:#fff;stroke-width:12.5;stroke-linejoin:round;stroke-opacity:1;stroke-dasharray:none"/><metadata id="metadata3119"/><g id="g3030" transform="matrix(1.3065793,0,0,1.3065793,-85.854751,206.80272)"><path style="fill:#fff" id="path3" d="m 378.21774,-51.521019 c 27.59538,0 49.98813,-23.892812 49.98813,-53.361091 0,-29.4943 -22.39275,-53.39586 -49.98813,-53.39586 -27.5997,0 -49.97943,23.90156 -49.97943,53.39586 0,29.468279 22.37973,53.361091 49.97943,53.361091 z"/><path style="fill:#fff" id="path5" d="m 536.68409,205.47141 c 4.41783,-13.97437 -4.4309,-106.173417 -4.4309,-106.173417 l -55.21672,-111.733416 22.09365,-11.176407 41.9718,72.633904 30.92068,-27.938512 -37.55828,-89.401073 -99.3997,-5.57024 c -6.62465,13.969259 -48.59645,41.892309 -57.43217,44.700566 -8.83572,2.797914 -4.42653,89.395903 -4.42653,89.395903 l -61.84136,2.803139 4.41789,58.644123 103.81748,-11.18158 11.05549,-44.695392 c 0,0 15.46037,41.917952 19.86956,50.291322 4.41784,8.37844 -4.40919,19.55485 -4.40919,19.55485 l -59.64762,44.69545 4.41352,159.2473 h 44.18293 l 8.83572,-122.91499 50.81189,-41.90255 -4.43084,86.59799 h 119.2995 l 6.62464,-58.66982 c -13.25793,-25.1559 -83.95666,16.76722 -79.52144,2.79285 z"/></g></svg>