<svg xmlns="http://www.w3.org/2000/svg" xmlns:svg="http://www.w3.org/2000/svg" id="svg2" width="447.491" height="226.297" version="1.1"><metadata id="metadata7"/><g id="layer1" transform="translate(-166.79459,-390.63087)"><path style="fill:#fff;fill-opacity:1;stroke:none" id="rect2985" d="m 182.85715,446.63651 360,0 0,114.28571 -360,0 c -20.67566,0 -22.14522,-114.28571 0,-114.28571 z"/><path style="fill:#fff;fill-opacity:1;stroke:none" id="rect2987" d="m 682.31519,-129.84747 c -0.62895,-2.18845 67.06597,112.546295 160,159.999997 l -160,0 z" transform="matrix(0.70710678,0.70710678,-0.70710678,0.70710678,0,0)"/><path style="fill:#fff;fill-opacity:1;stroke:none" id="path2992" d="m 619.99997,508.07648 c 0,59.17336 -7.67512,107.14286 -17.14285,107.14286 -9.46774,0 -17.14286,-47.9695 -17.14286,-107.14286 0,-59.17337 7.67512,-107.14286 17.14286,-107.14286 9.46773,0 17.14285,47.96949 17.14285,107.14286 z" transform="translate(-5.7142857,-4.2971205)"/></g></svg>