<svg xmlns="http://www.w3.org/2000/svg" xmlns:svg="http://www.w3.org/2000/svg" id="svg2" width="231.253" height="231.25" version="1.1"><metadata id="metadata7"/><g id="layer1" transform="translate(12.697572,-631.30931)"><path style="fill:#fff;stroke:#000;stroke-width:.39514463999999999px;stroke-linecap:butt;stroke-linejoin:miter;stroke-opacity:1" id="path2820" d="m 7.7000977,689.21849 -11.542913,21.64296 0,15.8715 -8.6571847,0 0,11.54292 8.6571847,0 0,98.11476 -8.6571847,0 0,11.54291 8.6571847,0 0,14.42864 23.0858263,0 0,-14.42864 23.807258,0 0,14.42864 23.085826,0 0,-14.42864 23.807258,0 0,14.42864 23.085827,0 0,-14.42864 23.80726,0 0,14.42864 23.08582,0 0,-14.42864 23.80726,0 0,14.42864 23.08583,0 0,-14.42864 11.54291,0 0,-11.54291 -11.54291,0 0,-98.11476 11.54291,0 0,-11.54292 -11.54291,0 0,-15.8715 -11.54292,-21.64296 -11.54291,21.64296 0,15.8715 -23.80726,0 0,-15.8715 -11.54291,-21.64296 -11.54291,21.64296 0,15.8715 -23.80726,0 0,-15.8715 -11.54291,-21.64296 -11.542917,21.64296 0,15.8715 -23.807258,0 0,-15.8715 -11.542913,-21.64296 -11.542913,21.64296 0,15.8715 -23.807258,0 0,-15.8715 -11.5429133,-21.64296 z m 11.5429133,49.05738 23.807258,0 0,98.11476 -23.807258,0 0,-98.11476 z m 46.893084,0 23.807258,0 0,98.11476 -23.807258,0 0,-98.11476 z m 46.893085,0 23.80726,0 0,98.11476 -23.80726,0 0,-98.11476 z m 46.89308,0 23.80726,0 0,98.11476 -23.80726,0 0,-98.11476 z"/></g></svg>