<svg xmlns="http://www.w3.org/2000/svg" xmlns:svg="http://www.w3.org/2000/svg" id="Layer_1" width="149.594" height="149.594" x="0" y="0" enable-background="new 0 0 100 100" version="1.1" viewBox="0 0 149.594 149.594" xml:space="preserve"><metadata id="metadata21"/><path style="fill:#fff;fill-opacity:1;stroke:none" id="path2992" d="m 74.78125,7.8437469 c -36.974995,0 -66.9375,29.9625051 -66.9375,66.9375001 0,36.974993 29.962505,66.968753 66.9375,66.968753 36.975,0 66.96875,-29.99376 66.96875,-66.968753 0,-36.974995 -29.99375,-66.9375001 -66.96875,-66.9375001 z m 0,11.2187501 c 30.77349,0 55.75,24.945257 55.75,55.71875 0,30.773493 -24.97651,55.750003 -55.75,55.750003 -30.773493,0 -55.71875,-24.97651 -55.71875,-55.750003 0,-30.773493 24.945257,-55.71875 55.71875,-55.71875 z"/><path style="fill:#fff;fill-opacity:1;stroke:none" id="rect2999" d="m 66.96875,-1.1547685e-7 0,44.09375011547685 15.65625,0 0,-44.09375011547685 -15.65625,0 z m 0,105.53125011547685 0,44.0625 15.65625,0 0,-44.0625 -15.65625,0 z"/><path style="fill:#fff;fill-opacity:1;stroke:none" id="rect2999-0" d="m 149.59375,66.96875 -44.09375,0 0,15.65625 44.09375,0 0,-15.65625 z m -105.53125,0 -44.0625,0 0,15.65625 44.0625,0 0,-15.65625 z"/></svg>