<svg xmlns="http://www.w3.org/2000/svg" xmlns:svg="http://www.w3.org/2000/svg" id="Layer_1" width="82.25" height="62.813" x="0" y="0" enable-background="new 0 0 100 40.213" version="1.0" viewBox="0 0 82.25 62.812" xml:space="preserve"><metadata id="metadata11"/><g id="g3879" transform="translate(6.125,22.59375)" style="fill:#fff"><path id="path3093" d="m 2.5,-4.7812508 0,44.9999998 5,0 0,-44.9999998 -5,0 z" style="font-size:medium;font-style:normal;font-variant:normal;font-weight:400;font-stretch:normal;text-indent:0;text-align:start;text-decoration:none;line-height:normal;letter-spacing:normal;word-spacing:normal;text-transform:none;direction:ltr;block-progression:tb;writing-mode:lr-tb;text-anchor:start;baseline-shift:baseline;color:#000;fill:#fff;fill-opacity:1;stroke:none;stroke-width:5;marker:none;visibility:visible;display:inline;overflow:visible;enable-background:accumulate;font-family:Sans;-inkscape-font-specification:Sans"/><path id="path3095" d="m 35,-22.593751 -1.125,0.5625 -40,20.0000003 2.25,4.46875 L 35,-17.000001 73.875,2.4374993 l 2.25,-4.46875 -40,-20.0000003 -1.125,-0.5625 z" style="font-size:medium;font-style:normal;font-variant:normal;font-weight:400;font-stretch:normal;text-indent:0;text-align:start;text-decoration:none;line-height:normal;letter-spacing:normal;word-spacing:normal;text-transform:none;direction:ltr;block-progression:tb;writing-mode:lr-tb;text-anchor:start;baseline-shift:baseline;color:#000;fill:#fff;fill-opacity:1;stroke:none;stroke-width:5;marker:none;visibility:visible;display:inline;overflow:visible;enable-background:accumulate;font-family:Sans;-inkscape-font-specification:Sans"/><path id="path3097" d="m 62.5,-4.7812508 0,44.9999998 5,0 0,-44.9999998 -5,0 z" style="font-size:medium;font-style:normal;font-variant:normal;font-weight:400;font-stretch:normal;text-indent:0;text-align:start;text-decoration:none;line-height:normal;letter-spacing:normal;word-spacing:normal;text-transform:none;direction:ltr;block-progression:tb;writing-mode:lr-tb;text-anchor:start;baseline-shift:baseline;color:#000;fill:#fff;fill-opacity:1;stroke:none;stroke-width:5;marker:none;visibility:visible;display:inline;overflow:visible;enable-background:accumulate;font-family:Sans;-inkscape-font-specification:Sans"/></g><g id="g3139" transform="matrix(0.13724816,0,0,0.12084762,15.553325,22.811822)"><path id="rect3135" d="M 31.88911,103.12086 247.77445,26.586263 358.2442,118.28339 141.63684,205.64835 z" style="fill:#fff;fill-opacity:1;stroke:none"/><path id="rect3135-4" d="M 30.848294,111.52289 136.26388,212.60632 135.54185,247.98553 32.292345,146.90209 z" style="fill:#fff;fill-opacity:1;stroke:none"/><path id="rect3135-4-8" d="m 145.6502,211.52328 213.71926,-85.92092 -7.22025,28.15897 -207.22104,93.14116 z" style="fill:#fff;fill-opacity:1;stroke:none"/><path id="rect3135-4-8-1" d="m 37.70753,161.34257 93.14116,93.14117 0,54.87387 -90.253061,-102.52749 z" style="fill:#fff;fill-opacity:1;stroke:none"/><path id="rect3135-4-8-1-8" d="M 139.51298,257.01083 340.2358,167.47979 328.68341,216.57746 138.06894,309.71863 z" style="fill:#fff;fill-opacity:1;stroke:none"/></g></svg>