<svg xmlns="http://www.w3.org/2000/svg" xmlns:svg="http://www.w3.org/2000/svg" id="svg2" width="71.097" height="71.156" x="0" y="0" enable-background="new 0 0 100 100" version="1.1" viewBox="0 0 71.097 71.156" xml:space="preserve"><metadata id="metadata16"/><g id="Your_Icon" transform="matrix(-1,0,0,1,85.203975,-14.014)" style="fill:#fff"><g id="g6" style="fill:#fff"><g id="g8" style="fill:#fff"><path id="path10" d="m 64.816,55.141 -0.893,-0.893 c -0.096,-0.096 -0.198,-0.181 -0.298,-0.27 2.301,-3.934 3.625,-8.507 3.625,-13.392 0,-14.677 -11.896,-26.572 -26.572,-26.572 -14.675,0 -26.571,11.896 -26.571,26.572 0,14.673 11.896,26.574 26.571,26.574 4.854,0 9.4,-1.309 13.317,-3.582 0.093,0.105 0.183,0.213 0.283,0.313 l 0.931,0.931 c 1.761,-1.084 4.038,-2.612 5.493,-4.068 1.55,-1.549 3.094,-3.911 4.114,-5.613 z m -24.157,4.003 c -10.25,0 -18.559,-8.309 -18.559,-18.559 0,-10.251 8.309,-18.559 18.559,-18.559 10.25,0 18.558,8.308 18.558,18.559 0,10.25 -8.308,18.559 -18.558,18.559 z M 82.846,73.168 66.623,56.946 c -0.68,1.359 -1.938,3.222 -4.263,5.547 -2.208,2.209 -3.993,3.446 -5.332,4.148 l 16.14,16.142 c 1.402,-1.494 3.3,-3.494 4.768,-4.962 1.537,-1.536 3.515,-3.375 4.91,-4.653 z m 1.743,2.361 c -0.828,1.207 -2.142,2.836 -4.249,4.943 -1.983,1.983 -3.549,3.27 -4.732,4.105 2.507,1.118 5.548,0.657 7.605,-1.397 2.068,-2.07 2.522,-5.135 1.376,-7.651 z" clip-rule="evenodd" style="fill-rule:evenodd;fill:#fff"/></g></g></g></svg>