<svg xmlns="http://www.w3.org/2000/svg" xmlns:svg="http://www.w3.org/2000/svg" id="Layer_1" width="119.27" height="111.058" x="0" y="0" enable-background="new 0 0 70.312 100" version="1.0" viewBox="0 0 119.27 111.058" xml:space="preserve"><metadata id="metadata11"/><path id="path3" d="m 74.632307,20.023842 c 5.175917,0 9.376009,-4.481457 9.376009,-10.008669 C 84.008316,4.4830839 79.808224,0 74.632307,0 c -5.176729,0 -9.374385,4.4830839 -9.374385,10.015173 0,5.527212 4.197656,10.008669 9.374385,10.008669 z" style="fill:#fff"/><path id="path5" d="m 104.355,68.226556 c 0.82863,-2.6211 -0.83108,-19.914391 -0.83108,-19.914391 l -10.356704,-20.957246 4.14399,-2.096302 7.872424,13.623558 5.79963,-5.240275 -7.04461,-16.768493 -18.643874,-1.044781 c -1.24255,2.620137 -9.114979,7.857523 -10.772248,8.384247 -1.657269,0.524798 -0.830261,16.767529 -0.830261,16.767529 l -11.599257,0.525761 0.828635,10.99957 19.472504,-2.097265 2.073617,-8.383284 c 0,0 2.89982,7.862338 3.72683,9.432879 0.82863,1.571505 -0.82701,3.667807 -0.82701,3.667807 l -11.187789,8.383284 0.827821,29.869182 h 8.287158 l 1.65727,-23.05452 9.53052,-7.859443 -0.83107,16.242733 h 22.376374 l 1.24255,-11.004385 c -2.48672,-4.718365 -15.74731,3.144935 -14.91542,0.523835 z" style="fill:#fff"/><g id="g3139" transform="matrix(0.21308617,0,0,0.18762333,-6.5733455,52.947161)"><path id="rect3135" d="M 31.88911,103.12086 247.77445,26.586263 358.2442,118.28339 141.63684,205.64835 z" style="fill:#fff;fill-opacity:1;stroke:none"/><path id="rect3135-4" d="M 30.848294,111.52289 136.26388,212.60632 135.54185,247.98553 32.292345,146.90209 z" style="fill:#fff;fill-opacity:1;stroke:none"/><path id="rect3135-4-8" d="m 145.6502,211.52328 213.71926,-85.92092 -7.22025,28.15897 -207.22104,93.14116 z" style="fill:#fff;fill-opacity:1;stroke:none"/><path id="rect3135-4-8-1" d="m 37.70753,161.34257 93.14116,93.14117 0,54.87387 -90.253061,-102.52749 z" style="fill:#fff;fill-opacity:1;stroke:none"/><path id="rect3135-4-8-1-8" d="M 139.51298,257.01083 340.2358,167.47979 328.68341,216.57746 138.06894,309.71863 z" style="fill:#fff;fill-opacity:1;stroke:none"/></g></svg>