<svg xmlns="http://www.w3.org/2000/svg" xmlns:svg="http://www.w3.org/2000/svg" id="svg2" width="63.436" height="70.973" version="1.1"><metadata id="metadata8"/><path id="path3751" d="m 9.1691499,34.987407 c 9.6460271,0 17.4937031,-7.847676 17.4937031,-17.493703 C 26.662853,7.847675 18.815177,0 9.1691499,0 7.4894039,0 5.8191059,0.241763 4.2051359,0.718641 L 0,1.961394 4.2051359,3.204146 c 6.2837381,1.856782 10.6725591,7.732917 10.6725591,14.289558 0,6.556289 -4.388821,12.432075 -10.6722091,14.288856 l -4.2037369,1.241704 4.2033869,1.243801 c 1.61432,0.47723 3.284268,0.719342 4.964014,0.719342 l 0,0 z m 0,-32.39589 c 8.2171411,0 14.9018351,6.685394 14.9018351,14.902187 0,8.216792 -6.684694,14.902186 -14.9018351,14.902186 -0.01504,0 -0.0301,0 -0.04548,0 5.0689761,-3.134172 8.3455461,-8.764346 8.3455461,-14.902186 0,-6.137492 -3.27657,-11.767315 -8.3448461,-14.902187 0.01539,0 0.0301,0 0.04478,0 l 0,0 z" style="fill:#fff"/><g id="g3139" transform="matrix(0.16719484,0,0,0.14721581,3.3511552,25.377931)"><path id="rect3135" d="M 31.88911,103.12086 247.77445,26.586263 358.2442,118.28339 141.63684,205.64835 z" style="fill:#fff;fill-opacity:1;stroke:none"/><path id="rect3135-4" d="M 30.848294,111.52289 136.26388,212.60632 135.54185,247.98553 32.292345,146.90209 z" style="fill:#fff;fill-opacity:1;stroke:none"/><path id="rect3135-4-8" d="m 145.6502,211.52328 213.71926,-85.92092 -7.22025,28.15897 -207.22104,93.14116 z" style="fill:#fff;fill-opacity:1;stroke:none"/><path id="rect3135-4-8-1" d="m 37.70753,161.34257 93.14116,93.14117 0,54.87387 -90.253061,-102.52749 z" style="fill:#fff;fill-opacity:1;stroke:none"/><path id="rect3135-4-8-1-8" d="M 139.51298,257.01083 340.2358,167.47979 328.68341,216.57746 138.06894,309.71863 z" style="fill:#fff;fill-opacity:1;stroke:none"/></g></svg>