<svg xmlns="http://www.w3.org/2000/svg" xmlns:svg="http://www.w3.org/2000/svg" id="svg2" width="100" height="100" x="0" y="0" enable-background="new -.999 -1 100 100" overflow="visible" version="1.1" viewBox="-0.999 -1 100 100" xml:space="preserve"><metadata id="metadata12"/><path id="path6" d="M48.999,98C21.98,98,0,76.019,0,49C0,21.982,21.98,0,48.999,0C76.02,0,98.002,21.982,98.002,49 C98.002,76.019,76.02,98,48.999,98L48.999,98z M48.999,10.187c-21.402,0-38.813,17.412-38.813,38.813s17.412,38.813,38.813,38.813 c21.405,0,38.817-17.412,38.817-38.813S70.403,10.187,48.999,10.187L48.999,10.187z" style="fill:#fff"/><path style="fill:#fff" id="path8" d="m 39.812,59.016 0,-31.39 c 0,-3.383 2.743,-6.125 6.125,-6.125 3.382,0 6.127,2.742 6.127,6.125 0,0 0.202085,11.609739 0,19.141 0.08472,0.06146 -12.252,12.249 -12.252,12.249 z"/><path style="fill:#fff" id="path8-0" d="M 39.848784,59.016 68.19702,37.494236 c 3.055179,-2.319469 3.872848,-6.384175 1.827836,-9.077843 -2.045013,-2.693668 -6.181139,-3 -9.236319,-0.680532 0,0 -10.606925,7.798972 -17.286194,13.123546 C 43.39561,40.834067 39.848784,59.016 39.848784,59.016 z"/></svg>