<svg xmlns="http://www.w3.org/2000/svg" xmlns:svg="http://www.w3.org/2000/svg" id="svg2" width="64.683" height="66.861" version="1.1"><metadata id="metadata8"/><path id="path3703" d="M 15.150824,0 H 0 v 35.758378 h 6.8981489 v -11.74484 h 7.9465841 c 6.01063,0.0068 11.819577,-5.118811 11.810632,-11.985134 C 26.664065,5.930885 21.782219,0.001789 15.150824,0 z M 14.713143,17.442579 H 6.9857569 V 6.637113 h 7.8157081 c 2.53348,-0.0093 5.085912,2.341816 5.085912,5.479256 0,3.139585 -2.378283,5.319059 -5.174234,5.32621 z" style="fill:#fff"/><g id="g3139" transform="matrix(0.16719484,0,0,0.14721581,4.5982359,21.265794)"><path id="rect3135" d="M 31.88911,103.12086 247.77445,26.586263 358.2442,118.28339 141.63684,205.64835 z" style="fill:#fff;fill-opacity:1;stroke:none"/><path id="rect3135-4" d="M 30.848294,111.52289 136.26388,212.60632 135.54185,247.98553 32.292345,146.90209 z" style="fill:#fff;fill-opacity:1;stroke:none"/><path id="rect3135-4-8" d="m 145.6502,211.52328 213.71926,-85.92092 -7.22025,28.15897 -207.22104,93.14116 z" style="fill:#fff;fill-opacity:1;stroke:none"/><path id="rect3135-4-8-1" d="m 37.70753,161.34257 93.14116,93.14117 0,54.87387 -90.253061,-102.52749 z" style="fill:#fff;fill-opacity:1;stroke:none"/><path id="rect3135-4-8-1-8" d="M 139.51298,257.01083 340.2358,167.47979 328.68341,216.57746 138.06894,309.71863 z" style="fill:#fff;fill-opacity:1;stroke:none"/></g></svg>