<svg xmlns="http://www.w3.org/2000/svg" xmlns:svg="http://www.w3.org/2000/svg" id="Layer_1" width="74.089" height="99.818" x="0" y="0" enable-background="new 0 0 74.089 99.818" version="1.0" viewBox="0 0 74.089 99.818" xml:space="preserve"><metadata id="metadata2861"/><path id="path3480_1_" d="m 52.543176,0.091 c 0,0 21.827,0.287 21.544,20.059 -0.284,19.773 -4.253,37.255 -10.773,46.998 -6.519,9.744 -23.242,35.248 -42.236,32.67 0,0 -9.355,-2.007 -16.44,-6.593 l 22.96,-18.054 c 0,0 6.803,4.299 11.055,-1.433 4.253,-5.73 17.575,-32.381 17.575,-32.381 0,0 3.685,-8.598 -4.536,-12.323 l 0.851,-28.943 z" style="fill:#fff"/><path id="path3482_1_" d="m 49.991176,0.091 c 0,0 -1.701,-0.571 -4.818,1.147 -3.118,1.719 -3.118,3.15 -3.118,3.15 l -0.284,19.775 c 0,0 0.851,1.147 1.984,2.291 1.134,1.146 4.819,2.867 5.387,1.72 0.565,-1.145 0.849,-28.083 0.849,-28.083 z" style="fill:#fff"/><path id="path3484_1_" d="m 25.689176,73.058 -6.312,-3.332 c 0,0 -1.417,-0.285 -3.684,1.146 -2.268,1.436 -14.174,10.893 -14.174,10.893 0,0 -1.98400005,1.719 -1.41700005,3.725 0.566,2.006 1.98400005,6.305 1.98400005,6.305 l 23.603,-18.737 z" style="fill:#fff"/></svg>