<svg xmlns="http://www.w3.org/2000/svg" xmlns:svg="http://www.w3.org/2000/svg" id="Layer_1" width="99.999" height="99.997" x="0" y="0" enable-background="new 0 0 99.999 99.998" version="1.0" viewBox="0 0 99.999 99.997" xml:space="preserve"><metadata id="metadata11"/><path id="path3" d="m 49.915,56.69925 c 1.843,-1.818 1.843,-4.797 0,-6.615 -1.818,-1.843 -4.798,-1.843 -6.615,0 l -9.366,9.341 v -13.229 c 0,-2.575 -2.096,-4.696 -4.696,-4.696 -2.575,0 -4.696,2.121 -4.696,4.696 v 13.229 l -9.342,-9.341 c -1.843,-1.843 -4.797,-1.843 -6.64,0 -1.843,1.818 -1.843,4.796 0,6.615 l 9.341,9.342 -13.229,0.025 c -2.576,0 -4.672,2.096 -4.672,4.695 0,2.575 2.096,4.696 4.672,4.696 H 17.9 l -9.341,9.341 c -1.843,1.844 -1.843,4.797 0,6.641 1.843,1.818 4.797,1.818 6.64,0 l 9.316,-9.342 0.025,13.205 c 0,2.6 2.121,4.695 4.696,4.695 2.601,0 4.696,-2.096 4.696,-4.695 v -13.23 l 9.366,9.367 c 1.817,1.818 4.797,1.818 6.615,0 1.843,-1.844 1.843,-4.797 0,-6.641 l -9.342,-9.341 h 13.232 c 2.575,0 4.696,-2.121 4.696,-4.696 0,-2.6 -2.121,-4.695 -4.696,-4.695 H 40.574 l 9.341,-9.367 z" style="fill:#fff"/><path id="path5" d="m 55.166,9.3862494 c 0,-2.575 2.096,-4.671 4.696,-4.671 2.6,0 4.696,2.096 4.696,4.671 V 28.80125 L 92.002,1.3822494 c 1.818,-1.84299994 4.797,-1.84299994 6.615,0 1.843,1.818 1.843,4.797 0,6.615 L 71.198,35.44125 h 19.415 c 2.575,0 4.671,2.095 4.671,4.696 0,2.575 -2.096,4.696 -4.671,4.696 l -30.726,-0.025 c -1.212,0 -2.398,-0.455 -3.333,-1.363 -0.909,-0.909 -1.363,-2.121 -1.363,-3.308 L 55.166,9.3862494 z" style="fill:#fff"/></svg>