<svg xmlns="http://www.w3.org/2000/svg" xmlns:svg="http://www.w3.org/2000/svg" id="Layer_1" width="74.844" height="100" x="0" y="0" enable-background="new 0 0 74.844 100" version="1.1" viewBox="0 0 74.844 100" xml:space="preserve"><metadata id="metadata9"/><path id="path3" d="m 65.377999,100 h 9.466 l -16.823,-24.954 c 3.229,-0.508 5.898,-1.999 8.021,-4.447 2.135,-2.447 3.203,-5.352 3.203,-8.704 v -48.75 c 0,-3.607 -1.289,-6.699 -3.867,-9.284 -2.592,-2.578 -5.756,-3.861 -9.48,-3.861 h -36.953 c -3.75,0 -6.901,1.283 -9.4789999,3.861 -2.578,2.584 -3.867,5.677 -3.867,9.284 v 48.75 c 0,3.353 1.094,6.289 3.294,8.802 2.1879999,2.514 4.8309999,3.959 7.9299999,4.35 L -8.8500977e-7,100 H 9.4659991 l 1.6139999,-2.402 h 52.682 l 1.616,2.402 z m -5.625,-33.079 c -1.146,1.158 -2.644,1.744 -4.44,1.744 -1.68,0 -3.099,-0.586 -4.258,-1.744 -1.159,-1.166 -1.745,-2.637 -1.745,-4.447 0,-1.673 0.586,-3.118 1.745,-4.349 1.159,-1.224 2.578,-1.843 4.258,-1.843 1.797,0 3.294,0.619 4.44,1.843 1.158,1.23 1.744,2.676 1.744,4.349 0,1.81 -0.586,3.281 -1.744,4.447 z m -46.029,-52.546 c 0,-1.803 0.586,-3.288 1.745,-4.453 1.146,-1.159 2.63,-1.738 4.44,-1.738 h 35.013 c 1.81,0 3.32,0.58 4.544,1.738 1.237,1.166 1.85,2.65 1.85,4.453 v 15.599 c 0,1.81 -0.612,3.294 -1.85,4.453 -1.224,1.159 -2.734,1.731 -4.544,1.731 h -35.013 c -1.81,0 -3.294,-0.573 -4.44,-1.731 -1.159,-1.159 -1.745,-2.644 -1.745,-4.453 V 14.375 z m 1.354,52.546 c -1.172,-1.166 -1.745,-2.637 -1.745,-4.447 0,-1.673 0.573,-3.118 1.745,-4.349 1.172,-1.224 2.643,-1.843 4.453,-1.843 1.667,0 3.086,0.619 4.258,1.843 1.159,1.23 1.745,2.676 1.745,4.349 0,1.811 -0.586,3.281 -1.745,4.447 -1.172,1.158 -2.591,1.744 -4.258,1.744 -1.81,0 -3.281,-0.586 -4.453,-1.744 z m 1.42,22.617 4.388,-6.557 h 33.073 l 4.401,6.557 h -41.862 z" style="fill:#fff"/></svg>