<svg xmlns="http://www.w3.org/2000/svg" xmlns:svg="http://www.w3.org/2000/svg" id="Layer_1" width="100" height="59.47" x="0" y="0" enable-background="new 0 0 100 59.471" version="1.0" viewBox="0 0 100 59.47" xml:space="preserve"><metadata id="metadata2971"/><path id="path5004" d="m 41.283,22.671999 c 1.856,0 3.367,-1.522 3.367,-3.369 v -5.62 c 0,-1.846 -1.511,-3.368 -3.367,-3.368 H 15.915 c -1.857,0 -3.367,1.522 -3.367,3.368 v 5.62 c 0,1.846 1.51,3.369 3.367,3.369 h 25.368 z m 33.481,-0.026 c 1.869,0 3.367,-1.521 3.367,-3.367 v -5.596 c 0,-1.846 -1.496,-3.368 -3.367,-3.368 H 63.056 c -1.857,0 -3.367,1.522 -3.367,3.368 v 5.596 c 0,1.845 1.51,3.367 3.367,3.367 h 11.708 z m -43.535,26.736 H 12.056 c -6.651,0 -12.032,-5.394 -12.032,-12.032 L 0,16.331999 C 0,7.3079993 7.31,-0.00100067 16.321,-0.00100067 h 55.508 c 9.012,0 16.333,7.30899997 16.333,16.33299967 l 0.022,29.669 h 8.498 c 1.833,0 3.317,1.522 3.317,3.355 H 56.896 c -0.42,-6.746 -5.979,-12.09 -12.833,-12.09 -6.854,10e-4 -12.415,5.345 -12.834,12.116" style="fill:#fff"/><path id="path5006" d="m 44.064,54.211999 c 2.229,0 4.027,-1.786 4.027,-4.016 0,-2.23 -1.798,-4.027 -4.027,-4.027 -2.217,0 -4.015,1.798 -4.015,4.027 0,2.229 1.798,4.016 4.015,4.016 m -9.264,-4.015 c 0,-5.13 4.135,-9.275 9.264,-9.275 5.129,0 9.263,4.146 9.263,9.275 0,5.116 -4.134,9.273 -9.263,9.273 -5.13,0 -9.264,-4.156 -9.264,-9.273" style="fill:#fff"/></svg>