<svg xmlns="http://www.w3.org/2000/svg" xmlns:svg="http://www.w3.org/2000/svg" id="Layer_1" width="98.928" height="99.996" x="0" y="0" enable-background="new 0 0 100 100" version="1.1" viewBox="0 0 98.928 99.996" xml:space="preserve"><metadata id="metadata25"/><path id="path15" d="m 21.045539,36.941396 58.384,58.04 c 4.448,4.423 11.662,4.423 16.11,0 4.447,-4.421 4.447,-11.592 0,-16.016 l -58.383,-58.04 c 0.712,-5.508 -1.041,-11.2699997 -5.296,-15.4999997 -5.107,-5.07800002 -12.434,-6.584 -18.872,-4.54900002 3.752,3.72700002 6.652,6.67900002 7.565,7.58500002 3.262,3.2439997 4.035,7.7329997 1.728,10.0259997 l -3.684,3.663 c -2.307,2.293 -6.823,1.525 -10.085,-1.718 -0.911,-0.907 -3.88,-3.789 -7.63099997,-7.521 -2.04700003,6.402 -0.532,13.685 4.57599997,18.763 4.255,4.231 10.049,5.974 15.588,5.267 z" style="fill:#fff"/><path id="path17" d="m 20.895539,98.602396 29.443,-29.272 -3.843,-3.822 -27.491,27.33 c -0.651,0.648 -1.795,0.558 -2.556,-0.195 -0.76,-0.759 -0.849,-1.897 -0.198,-2.543 l 27.49,-27.33 -4.405,-4.381 -27.49,27.332 c -0.65,0.645 -1.794,0.557 -2.556,-0.198 -0.761,-0.756 -0.849,-1.896 -0.198,-2.539 l 27.49,-27.332 -3.844,-3.821 -29.443,29.272 c -2.85099997,2.832 -1.22,9.046 3.641,13.877 4.86,4.833 11.109,6.455004 13.96,3.622 z" style="fill:#fff"/><polygon id="polygon19" points="98.928 10.264 92.153 3.526 69.45 19.361 67.244 27.537 57.351 37.373 64.886 44.862 74.778 35.026 83.002 32.835" transform="translate(-4.6096679e-4,3.9627762e-4)" style="fill:#fff"/></svg>