<svg xmlns="http://www.w3.org/2000/svg" xmlns:svg="http://www.w3.org/2000/svg" id="Layer_1" width="99.94" height="98.44" x="0" y="0" enable-background="new 0 0 99.94 98.44" version="1.0" viewBox="0 0 99.94 98.44" xml:space="preserve"><metadata id="metadata12"/><path id="path5026" d="M40.883,0H21.858v13.612h19.024V0z" style="fill:#fff"/><path id="path5028" d="M62.348,58.74c-1.803,0-3.259-1.456-3.259-3.26V17.873h28.739L99.94,69.184l-0.062,3.318V95.18 c0,1.742-1.409,3.169-3.169,3.169H68.774c-1.758,0-3.169-1.427-3.169-3.169V58.74h-3.033" style="fill:#fff"/><path id="path5030" d="M37.533,58.816c1.804,0,3.259-1.441,3.259-3.245V17.932h-28.71L-0.06,69.247L0,72.592v22.679 c0,1.742,1.425,3.169,3.169,3.169h27.936c1.774,0,3.2-1.427,3.2-3.169V58.816h2.986" style="fill:#fff"/><path id="path5032" d="M54.858,17.932h-9.853v34.94h9.853V17.932z" style="fill:#fff"/><path id="path5034" d="M78.127,0H59.089v13.612h19.038V0z" style="fill:#fff"/></svg>