<svg xmlns="http://www.w3.org/2000/svg" xmlns:svg="http://www.w3.org/2000/svg" id="svg2" width="124.853" height="98" x="0" y="0" enable-background="new -.999 -1 100 100" overflow="visible" version="1.1" viewBox="-0.999 -1 124.853 98" xml:space="preserve" style="overflow:visible"><metadata id="metadata12"/><path id="path6" d="M 48,97 C 20.981,97 -0.999,75.019 -0.999,48 -0.999,20.982 20.981,-1 48,-1 75.021,-1 97.003,20.982 97.003,48 97.003,75.019 75.021,97 48,97 l 0,0 z M 48,9.187 C 26.598,9.187 9.187,26.599 9.187,48 9.187,69.401 26.599,86.813 48,86.813 69.405,86.813 86.817,69.401 86.817,48 86.817,26.599 69.404,9.187 48,9.187 l 0,0 z" style="fill:#fff"/><path id="path8" d="M 71.677352,44.399107 42.464601,60.197387 27.532559,32.586407 c -1.609273,-2.975723 -0.500855,-6.692445 2.473989,-8.301243 2.974843,-1.608797 6.693728,-0.502685 8.303002,2.473038 l 9.105263,16.836628 18.43576,-9.970075 c 2.974844,-1.608798 6.692445,-0.500855 8.301243,2.473989 1.608322,2.973963 0.500379,6.691565 -2.474464,8.300363 z" style="fill:#fff"/><text style="font-size:133.52758789px;font-style:normal;font-weight:400;line-height:125%;letter-spacing:0;word-spacing:0;fill:#fff;fill-opacity:1;stroke:none;font-family:Sans;-inkscape-font-specification:Sans" id="text2983" x="90.472" y="97" xml:space="preserve"><tspan id="tspan2985" x="90.472" y="97">!</tspan></text></svg>