<svg xmlns="http://www.w3.org/2000/svg" xmlns:svg="http://www.w3.org/2000/svg" id="Layer_1" width="74.536" height="73.662" x="0" y="0" enable-background="new 0 0 100 100" version="1.1" viewBox="0 0 74.536 73.662" xml:space="preserve"><metadata id="metadata11"/><polygon id="polygon3" points="79.953 30.445 85.734 24.664 89.414 28.345 91.342 26.417 74.174 9.25 72.247 11.178 76.101 15.03 70.32 20.812" transform="translate(-16.806,-9.25)" style="fill:#fff"/><polygon id="polygon5" points="58.763 28.522 54.909 32.376 60.689 38.156 58.763 40.083 52.981 34.303 49.127 38.157 54.907 43.938 52.981 45.865 47.2 40.084 31.784 55.5 33.101 63.513 16.806 82.912 37.262 67.673 45.273 68.989 79.958 34.305 66.469 20.815 60.69 26.594 66.471 32.376 64.543 34.303" transform="translate(-16.806,-9.25)" style="fill:#fff"/></svg>