<svg xmlns="http://www.w3.org/2000/svg" xmlns:svg="http://www.w3.org/2000/svg" id="Layer_1" width="100" height="82.704" x="0" y="0" enable-background="new 0 0 100 82.704" version="1.0" viewBox="0 0 100 82.704" xml:space="preserve"><metadata id="metadata2883"/><path id="path2873" d="M17.473,82.588h-7.398C4.952,82.58,0.005,78.827,0,72.287c0,0,0.005-46.695,0-46.837 c0.005-5.786,4.833-10.182,10.075-10.186h7.398V82.588L17.473,82.588z" style="fill:#fff"/><path id="path2875" d="M64.025,15.378V5.7c0.028-3.486-3.065-5.715-6.829-5.688c0,0-14.393-0.027-14.341,0c-3.749-0.027-6.894,2.202-6.887,5.688 v9.678H22.48v67.325h55.146V15.378H64.025z M58.961,15.378H40.919v-9.96h18.042V15.378z" style="fill:#fff"/><path id="path2877" d="M82.578,82.588h7.398c5.083-0.009,10.031-3.762,10.017-10.302c0,0,0.015-46.695,0-46.837 c0.015-5.786-4.814-10.182-10.017-10.186h-7.398V82.588L82.578,82.588z" style="fill:#fff"/></svg>