<svg xmlns="http://www.w3.org/2000/svg" xmlns:svg="http://www.w3.org/2000/svg" id="svg2" width="59.59" height="41.402" version="1.1"><metadata id="metadata7"/><g id="layer1" transform="translate(96.152995,-623.84806)"><g style="font-size:47.20604706000000306px;font-style:normal;font-weight:700;fill:#fff;fill-opacity:1;stroke:none;font-family:Bitstream Vera Sans;-inkscape-font-specification:Bitstream Charter Bold" id="text3117" transform="scale(0.84734907,1.1801512)"><path id="path3122" d="m -113.47507,528.61706 8.87418,0 0,20.6296 c -10e-6,2.84282 0.46098,4.87889 1.38299,6.1082 0.93734,1.21397 2.45863,1.82095 4.563866,1.82094 2.120562,10e-6 3.64185,-0.60697 4.563866,-1.82094 0.937335,-1.22931 1.406014,-3.26538 1.406039,-6.1082 l 0,-20.6296 8.874184,0 0,20.6296 c -3.4e-5,4.87121 -1.221674,8.49771 -3.664923,10.87952 -2.44331,2.38181 -6.169695,3.57272 -11.179166,3.57272 -4.994146,0 -8.712846,-1.19091 -11.156116,-3.57272 -2.44329,-2.38181 -3.66493,-6.00831 -3.66492,-10.87952 l 0,-20.6296" style="fill:#fff"/><path id="path3124" d="m -79.223031,528.61706 8.920283,0 9.127732,25.40091 9.104682,-25.40091 8.920283,0 -12.746554,34.4134 -10.579871,0 -12.746555,-34.4134" style="fill:#fff"/></g></g></svg>