<svg xmlns="http://www.w3.org/2000/svg" xmlns:svg="http://www.w3.org/2000/svg" id="Layer_1" width="93.53" height="100" x="0" y="0" enable-background="new 0 0 93.53 100" version="1.0" viewBox="0 0 93.53 100" xml:space="preserve"><metadata id="metadata3125"/><path id="path3115" d="M93.53,100c-2.027,0-3.983-0.442-5.754-1.234c-1.794-0.839-3.82-1.328-5.939-1.328c-2.097,0-4.123,0.489-5.917,1.328 C74.173,99.558,72.192,100,70.143,100c-2.026,0-4.006-0.442-5.753-1.234c-1.788-0.839-3.814-1.328-5.935-1.328 c-2.097,0-4.123,0.489-5.917,1.328c-1.77,0.792-3.727,1.234-5.776,1.234c-2.026,0-4.006-0.442-5.753-1.234 c-1.793-0.839-3.82-1.328-5.94-1.328c-2.097,0-4.123,0.489-5.94,1.328C27.381,99.558,25.425,100,23.387,100 c-2.05,0-4.007-0.442-5.754-1.234c-1.793-0.839-3.82-1.328-5.939-1.328c-2.12,0-4.146,0.489-5.94,1.328C4.006,99.558,2.05,100,0,100 v-8.619c2.05,0,4.006-0.465,5.753-1.258c1.794-0.838,3.82-1.327,5.94-1.327c2.119,0,4.146,0.489,5.939,1.327 c1.747,0.793,3.704,1.258,5.754,1.258c2.038,0,3.995-0.465,5.742-1.258c1.817-0.838,3.843-1.327,5.94-1.327 c2.12,0,4.146,0.489,5.94,1.327c1.747,0.793,3.727,1.258,5.753,1.258c2.05,0,4.007-0.465,5.776-1.258 c1.794-0.838,3.82-1.327,5.917-1.327c2.12,0,4.146,0.489,5.935,1.327c1.747,0.793,3.727,1.258,5.753,1.258 c2.05,0,4.03-0.465,5.777-1.258c1.794-0.838,3.82-1.327,5.917-1.327c2.119,0,4.146,0.489,5.939,1.327 c1.771,0.793,3.727,1.258,5.754,1.258V100z" style="fill:#fff"/><g id="g3920" transform="translate(0.280625,0)" style="fill:#fff"><path id="path3113" d="m 46.484375,19.101 c 5.264,0 9.551,-4.286 9.551,-9.551 0,-5.264 -4.287,-9.55 -9.551,-9.55 -5.265,0 -9.551,4.286 -9.551,9.55 0,5.265 4.286,9.551 9.551,9.551 z" style="fill:#fff"/><path id="path3117" d="m 46.46875,20.6875 -9.40625,0.03125 c -6.125999,0 -10.1875,5.102751 -10.1875,10.34375 l 0,25.59375 c -0.023,4.752 6.15625,4.752 6.15625,0 l 0,-23.75 2.9375,0 L 36,45.25 l 0,4.1875 0,33.75 c 1.561999,0.164 3.0625,0.621 4.4375,1.25 1.327,0.582 2.759,0.99325 4.25,1.15625 l 0,-36.15625 1.78125,0 0.03125,0 1.78125,0 0,36.15625 c 1.491,-0.163 2.923,-0.57425 4.25,-1.15625 1.375,-0.629 2.8755,-1.086 4.4375,-1.25 l 0,-33.75 0,-4.1875 L 57,32.90625 l 2.9375,0 0,23.75 c 0,4.752 6.17925,4.752 6.15625,0 l 0,-25.59375 c 0,-5.241 -4.0615,-10.34375 -10.1875,-10.34375 L 46.5,20.6875 l -0.03125,0 z" style="fill:#fff"/></g></svg>