<svg xmlns="http://www.w3.org/2000/svg" xmlns:svg="http://www.w3.org/2000/svg" id="Layer_1" width="86.735" height="100" x="0" y="0" enable-background="new 0 0 86.735 100" version="1.0" viewBox="0 0 86.735 100" xml:space="preserve"><metadata id="metadata2950"/><g id="g2938" transform="matrix(-1,0,0,1,86.735406,0)" style="fill:#fff"><path id="path2940" d="m 61.075,65.383 c 0.002,0.146 0.011,0.288 0.011,0.434 0,14.833 -12.068,26.901 -26.902,26.901 -14.833,0 -26.902,-12.068 -26.902,-26.901 0,-8.966 4.413,-16.916 11.176,-21.807 L 17.543,35.972 C 7.087,41.825 0,53.006 0,65.816 0,84.666 15.334,100 34.184,100 50.163,100 63.611,88.979 67.338,74.141 l -6.263,-8.758 z" style="fill:#fff"/></g><circle id="circle2942" cx="29.795" cy="8.698" r="8.698" transform="matrix(-1,0,0,1,86.735406,0)" style="fill:#fff"/><path id="path2944" d="M 0.86840648,76.098 20.385406,48.807 c 1.022,-1.429 2.726,-2.105 4.457,-1.957 0.129,-0.012 0.258,-0.023 0.389,-0.023 l 22.295,0 0.553,-4.854 -16.572,0 c -1.927,0 -3.489,-1.562 -3.489,-3.489 0,-1.927 1.562,-3.489 3.489,-3.489 l 17.366,0 0.907,-7.97 c 0.53,-4.662 4.74,-8.011 9.401,-7.48 4.662,0.531 8.011,4.74 7.48,9.401 l -2.562,22.509 c -0.496,4.353 -4.196,7.557 -8.478,7.533 -0.014,0 -0.028,0.003 -0.043,0.003 l -29.172,0 -16.7379995,23.403 c -1.598,2.237 -4.866,2.641 -7.297,0.901 -2.42900002,-1.738 -3.10300002,-4.961 -1.50300002,-7.197 z" style="fill:#fff"/></svg>