<svg xmlns="http://www.w3.org/2000/svg" xmlns:svg="http://www.w3.org/2000/svg" id="Layer_1" width="100" height="100" x="0" y="0" enable-background="new 0 0 566.93 566.93" version="1.1" viewBox="0 0 566.93 566.93" xml:space="preserve"><metadata id="metadata37"/><g id="g3" style="fill:#fff;fill-opacity:1"><polygon id="polygon5" points="142.703 206.109 155.806 167.68 190.855 160.681 168.302 227.552 147.807 231.65 141.813 201.659" style="fill:#fff;fill-opacity:1"/><g id="g7" style="fill:#fff;fill-opacity:1"><path id="path9" d="M146.696,301.041v152.154h287.181V301.041H146.696z M415.055,334.692H294.512v111.539h-8.449V334.692H165.513v-8.449 h249.542V334.692z" style="fill:#fff;fill-opacity:1"/><path id="path11" d="M431.105,304.192H149.468c-1.532,0-2.771-1.239-2.771-2.771v-61.163c0-1.532,1.24-2.771,2.771-2.771h281.638 c1.532,0,2.777,1.239,2.777,2.771v61.163C433.883,302.953,432.638,304.192,431.105,304.192L431.105,304.192z M152.24,298.644 h276.094v-55.614H152.24V298.644L152.24,298.644z" style="fill:#fff;fill-opacity:1"/><polygon id="polygon13" points="149.468 270.84 169.84 240.258 205.585 240.258 170.372 301.421 149.468 301.421 149.468 270.84" style="fill:#fff;fill-opacity:1"/><polygon id="polygon15" points="196.112 301.421 231.325 240.258 266.427 240.258 231.267 301.421 196.112 301.421" style="fill:#fff;fill-opacity:1"/><polygon id="polygon17" points="256.796 301.421 291.518 240.258 327.263 240.258 292.044 301.421 256.796 301.421" style="fill:#fff;fill-opacity:1"/><polygon id="polygon19" points="317.79 301.421 353.003 240.258 388.099 240.258 352.886 301.421 317.79 301.421" style="fill:#fff;fill-opacity:1"/><polygon id="polygon21" points="378.626 301.421 413.839 240.258 431.105 240.258 431.105 271.231 413.722 301.421 378.626 301.421" style="fill:#fff;fill-opacity:1"/><path id="path23" d="M147.801,234.422c-1.298,0-2.45-0.906-2.713-2.228l-11.987-59.982c-0.146-0.719,0.006-1.468,0.415-2.082 c0.404-0.614,1.041-1.035,1.766-1.181l276.188-55.158c0.713-0.152,1.467,0.012,2.081,0.409c0.608,0.409,1.035,1.047,1.182,1.766 l11.975,59.982c0.299,1.503-0.672,2.965-2.175,3.263l-276.188,55.158C148.164,234.404,147.982,234.422,147.801,234.422 L147.801,234.422z M139.083,173.849l10.899,54.539l270.744-54.077l-10.894-54.538L139.083,173.849L139.083,173.849z" style="fill:#fff;fill-opacity:1"/><polygon id="polygon25" points="193.551 222.517 216.093 155.641 250.516 148.764 228.021 215.628 193.551 222.517" style="fill:#fff;fill-opacity:1"/><polygon id="polygon27" points="253.054 210.623 275.128 143.852 310.177 136.847 287.617 203.724 253.054 210.623" style="fill:#fff;fill-opacity:1"/><polygon id="polygon29" points="312.866 198.683 335.413 131.807 369.837 124.936 347.278 191.813 312.866 198.683" style="fill:#fff;fill-opacity:1"/><polygon id="polygon31" points="372.521 186.772 395.068 119.89 412.014 116.51 418.078 146.881 406.944 179.896 372.521 186.772" style="fill:#fff;fill-opacity:1"/></g></g></svg>