<svg xmlns="http://www.w3.org/2000/svg" xmlns:svg="http://www.w3.org/2000/svg" id="svg2" width="100" height="100" x="0" y="0" enable-background="new 0 0 90 90" version="1.1" viewBox="4.5 -9 90 121.5" xml:space="preserve"><metadata id="metadata37"/><switch id="switch4" transform="translate(6.1779661,6.1779661)"><g id="g8"><g id="Слой_1"><g id="g11"><path id="path13" d="M 39,68.1 C 23.9,68.1 11.7,55.2 11.7,39.3 11.7,23.4 23.9,10.5 39,10.5 c 15.1,0 27.3,12.9 27.3,28.8 0,15.9 -12.2,28.8 -27.3,28.8 z m 0,-52.6 c -12.3,0 -22.3,10.7 -22.3,23.8 0,13.1 10,23.8 22.3,23.8 12.3,0 22.3,-10.7 22.3,-23.8 0,-13.1 -10,-23.8 -22.3,-23.8 z"/></g><g id="g15"><path id="path17" d="M 2.8,89.7 C 2.5,89.7 2.2,89.6 1.9,89.5 0.6,89 0,87.5 0.5,86.3 3.6,78.5 8.9,72 15.8,67.3 l 1.5,-1 1.4,1.1 c 6.3,4.6 13.7,7.1 21.6,7.1 7.3,0 14.4,-2.2 20.4,-6.3 l 1.5,-1 1.4,1.1 c 6.3,4.6 11.1,10.9 14,18.1 0.5,1.3 -0.1,2.7 -1.4,3.2 -1.3,0.5 -2.7,-0.1 -3.2,-1.4 -2.3,-5.8 -6.1,-11 -10.9,-14.9 -6.5,4 -14,6.2 -21.7,6.2 -8.3,0 -16.2,-2.4 -23,-7 C 12,76.5 7.9,82 5.3,88.3 4.7,89.1 3.8,89.7 2.8,89.7 z"/></g><g id="g19"><path id="path21" d="M 81.6,37.5 H 74.5 C 73.7,37.5 73,36.8 73,36 c 0,-0.8 0.7,-1.5 1.5,-1.5 h 7.1 c 0.8,0 1.5,0.7 1.5,1.5 0,0.8 -0.7,1.5 -1.5,1.5 z"/></g><g id="g23"><path id="path25" d="m 79.3,31.9 h -2 c -2.7,0 -4.8,-2.2 -4.8,-4.8 V 22.4 C 68.9,20.3 67,17.1 67,13 67,6.4 72,1 78.1,1 c 6.1,0 11.1,5.4 11.1,12 0,3.8 -1.7,6.9 -5,9.1 v 5.1 c -0.1,2.5 -2.3,4.7 -4.9,4.7 z M 78,4.9 c -3.9,0 -7.1,3.6 -7.1,8 0,3 1.4,5 4.3,6.4 l 1.1,0.5 V 27 c 0,0.4 0.4,0.8 0.8,0.8 h 2 c 0.4,0 0.8,-0.4 0.8,-0.8 v -7.3 l 1,-0.6 c 2.7,-1.5 3.9,-3.4 3.9,-6.2 0.3,-4.4 -2.9,-8 -6.8,-8 z"/></g></g></g></switch></svg>