<svg xmlns="http://www.w3.org/2000/svg" xmlns:svg="http://www.w3.org/2000/svg" id="svg2" width="593.094" height="334.287" version="1.1"><metadata id="metadata7"/><g id="layer1" transform="translate(473.69643,-422.38236)"><path style="fill:#fff;stroke:none" id="path3061" d="m 147.375,112.875 c -135.24807,1.36352 -249.90871,70.74439 -292.5,167.125 43.00916,97.35564 159.54151,167.15625 296.5625,167.15625 137.01925,0 253.52076,-69.80256 296.53125,-167.15625 -43.0184,-97.34208 -159.52242,-167.125 -296.53125,-167.125 -1.35606,0 -2.71051,-0.0136 -4.0625,0 z m 4.0625,58.5625 C 211.39984,171.4375 260,220.03766 260,280 260,339.96234 211.39984,388.59375 151.4375,388.59375 91.47516,388.59375 42.84375,339.96234 42.84375,280 c 0,-59.96234 48.63141,-108.5625 108.59375,-108.5625 z" transform="translate(-328.57143,309.5134)"/></g></svg>