<svg xmlns="http://www.w3.org/2000/svg" xmlns:svg="http://www.w3.org/2000/svg" id="svg2" width="754.281" height="754.281" version="1.1"><metadata id="metadata7"/><g id="layer1" transform="translate(1145.6964,123.33035)"><path style="fill:#fff;fill-opacity:1;stroke:none" id="path2984" d="m -397.15625,-380 c -208.29025,0 -377.125,168.83475 -377.125,377.125 0,208.29025 168.83475,377.15625 377.125,377.15625 C -188.866,374.28125 -20,205.41525 -20,-2.875 -20,-211.16525 -188.866,-380 -397.15625,-380 z m 0,114.28125 c 34.71504,0 62.875,28.12871 62.875,62.84375 0,34.71504 -28.15996,62.875 -62.875,62.875 -34.71504,0 -62.84375,-28.15996 -62.84375,-62.875 0,-34.71504 28.12871,-62.84375 62.84375,-62.84375 z M -460,-68.5625 l 125.71875,0 0,328.5625 -125.71875,0 0,-328.5625 z" transform="translate(-371.41518,256.66965)"/></g></svg>